<?xml version="1.0" encoding="UTF-8"?>
<svg xmlns="http://www.w3.org/2000/svg" xmlns:xlink="http://www.w3.org/1999/xlink" width="238px" height="148px" viewBox="0 0 237 148" version="1.1">
<defs>
<clipPath id="clip1">
  <path d="M 45.691406 50.445312 L 191.019531 50.445312 L 191.019531 97.679688 L 45.691406 97.679688 Z M 45.691406 50.445312 "/>
</clipPath>
<clipPath id="clip2">
  <path d="M 79 0.0625 L 220.820312 0.0625 L 220.820312 148 L 79 148 Z M 79 0.0625 "/>
</clipPath>
<clipPath id="clip3">
  <path d="M 76 0.0625 L 224 0.0625 L 224 148 L 76 148 Z M 76 0.0625 "/>
</clipPath>
</defs>
<g id="surface1">
<g clip-path="url(#clip1)" clip-rule="nonzero">
<path style=" stroke:none;fill-rule:nonzero;fill:rgb(29.803922%,68.627451%,31.372549%);fill-opacity:1;" d="M 75.792969 86.15625 L 70.597656 86.15625 L 68.28125 63.300781 L 60.769531 79.34375 L 53.253906 63.300781 L 50.890625 86.15625 L 45.695312 86.15625 L 49.527344 52.824219 L 53.632812 52.824219 L 60.769531 68.867188 L 67.855469 52.824219 L 71.964844 52.824219 Z M 80.421875 97.679688 L 85.148438 85.105469 L 76.882812 62.628906 L 81.9375 62.628906 L 87.601562 79.488281 L 92.992188 62.628906 L 98.046875 62.628906 L 85.433594 97.679688 Z M 105.796875 86.15625 L 98 52.824219 L 103.097656 52.824219 L 108.582031 78.914062 L 114.488281 53.492188 L 119.921875 53.492188 L 125.875 78.914062 L 131.355469 52.824219 L 136.457031 52.824219 L 128.660156 86.15625 L 123.230469 86.15625 L 117.179688 60.824219 L 111.230469 86.15625 Z M 146.371094 86.632812 C 144.292969 86.632812 142.480469 86.078125 140.9375 84.984375 C 139.394531 83.890625 138.210938 82.414062 137.390625 80.550781 C 136.570312 78.699219 136.160156 76.648438 136.160156 74.394531 C 136.160156 72.140625 136.570312 70.085938 137.390625 68.234375 C 138.210938 66.371094 139.386719 64.902344 140.917969 63.820312 C 142.441406 62.742188 144.257812 62.203125 146.371094 62.203125 C 148.480469 62.203125 150.308594 62.742188 151.851562 63.820312 C 153.394531 64.902344 154.574219 66.371094 155.390625 68.234375 C 156.210938 70.085938 156.621094 72.140625 156.621094 74.394531 C 156.621094 76.648438 156.210938 78.699219 155.390625 80.550781 C 154.574219 82.414062 153.394531 83.890625 151.851562 84.984375 C 150.308594 86.078125 148.480469 86.632812 146.371094 86.632812 Z M 146.371094 82.535156 C 148.070312 82.535156 149.386719 81.804688 150.316406 80.34375 C 151.242188 78.882812 151.710938 76.902344 151.710938 74.394531 C 151.710938 71.886719 151.234375 69.914062 150.292969 68.472656 C 149.347656 67.023438 148.035156 66.296875 146.371094 66.296875 C 144.703125 66.296875 143.402344 67.023438 142.476562 68.472656 C 141.546875 69.914062 141.078125 71.886719 141.078125 74.394531 C 141.078125 76.902344 141.546875 78.882812 142.476562 80.34375 C 143.402344 81.804688 144.703125 82.535156 146.371094 82.535156 Z M 160.214844 86.15625 L 160.214844 62.628906 L 164.277344 62.628906 L 164.746094 65.917969 C 165.722656 64.617188 166.640625 63.667969 167.488281 63.082031 C 168.339844 62.5 169.285156 62.203125 170.324219 62.203125 C 170.761719 62.203125 171.140625 62.25 171.457031 62.347656 L 171.03125 67.488281 C 170.464844 67.363281 169.976562 67.300781 169.570312 67.300781 C 168.683594 67.300781 167.847656 67.527344 167.0625 67.996094 C 166.273438 68.453125 165.582031 69.046875 164.984375 69.777344 L 164.984375 86.15625 Z M 174.003906 86.15625 L 174.003906 50.445312 L 178.828125 50.445312 L 178.828125 72.726562 L 185.296875 62.628906 L 190.875 62.628906 L 183.507812 73.585938 L 191.015625 86.15625 L 185.441406 86.15625 L 178.828125 74.726562 L 178.828125 86.15625 Z M 174.003906 86.15625 "/>
</g>
<g clip-path="url(#clip2)" clip-rule="nonzero">
<path style=" stroke:none;fill-rule:nonzero;fill:rgb(50.588235%,78.039216%,51.764706%);fill-opacity:1;" d="M 146.929688 0 C 187.515625 0 220.414062 33.15625 220.414062 74.0625 C 220.414062 114.960938 187.515625 148.121094 146.929688 148.121094 C 116.628906 148.121094 90.613281 129.636719 79.371094 103.25 L 81.679688 103.25 C 92.785156 128.429688 117.820312 145.992188 146.929688 145.992188 C 186.34375 145.992188 218.304688 113.785156 218.304688 74.0625 C 218.304688 34.332031 186.34375 2.128906 146.929688 2.128906 C 117.820312 2.128906 92.785156 19.6875 81.679688 44.867188 L 79.371094 44.867188 C 90.613281 18.480469 116.628906 0 146.929688 0 Z M 146.929688 0 "/>
</g>
<g clip-path="url(#clip3)" clip-rule="nonzero">
<path style="fill:none;stroke-width:1;stroke-linecap:butt;stroke-linejoin:miter;stroke:rgb(100%,100%,100%);stroke-opacity:1;stroke-miterlimit:4;" d="M 245.816617 -0.000000000000037902 C 314.078963 -0.000000000000037902 369.41154 55.335148 369.41154 123.604431 C 369.41154 191.860675 314.078963 247.202343 245.816617 247.202343 C 194.853092 247.202343 151.096862 216.353389 132.18839 172.316051 L 136.071262 172.316051 C 154.749785 214.33895 196.856943 243.649367 245.816617 243.649367 C 312.107961 243.649367 365.863738 189.89839 365.863738 123.604431 C 365.863738 57.297434 312.107961 3.552975 245.816617 3.552975 C 196.856943 3.552975 154.749785 32.856874 136.071262 74.879773 L 132.18839 74.879773 C 151.096862 30.842435 194.853092 -0.000000000000037902 245.816617 -0.000000000000037902 Z M 245.816617 -0.000000000000037902 " transform="matrix(0.594558,0,0,0.59919,0.777403,0.00000000000002271)"/>
</g>
</g>
</svg>
