<svg id="圖層_1" data-name="圖層 1" xmlns="http://www.w3.org/2000/svg" viewBox="0 0 2000 1247"><defs><style>.cls-1{fill:#4caf50;}.cls-2{fill:#81c784;}</style></defs><g id="tight-bounds"><path id="text-0" class="cls-1" d="M638.58,725.4H594.45L574.79,532.83,511,668l-63.79-135.2L427.15,725.4H383l32.5-280.83h34.9L511,579.77l60.18-135.2h34.9Zm39.31,97.09L718,716.57,647.8,527.22h42.93l48.14,142,45.74-142h42.92L720.42,822.49ZM893.33,725.4l-66.2-280.83h43.33L917,664.42l50.14-214.23h46.14l50.55,214.23,46.53-219.85h43.33L1087.5,725.4h-46.14L990,512,939.46,725.4Zm344.53,4q-26.47,0-46.14-13.88t-30.08-37.31q-10.44-23.43-10.43-51.91h0q0-28.48,10.43-51.91t29.92-37.15q19.43-13.65,46.3-13.64h0q26.88,0,46.54,13.64t30.09,37.15q10.42,23.42,10.43,51.91h0q0,28.49-10.43,51.91t-30.09,37.31q-19.67,13.88-46.54,13.88Zm0-34.5q21.66,0,33.54-18.45t11.79-50.15h0q0-31.69-12-49.91t-33.3-18.29h0q-21.25,0-33.06,18.29t-11.87,49.91h0q0,31.7,11.87,50.15t33.06,18.45Zm117.55,30.49V527.22h34.5l4,27.68q12.43-16.46,23.27-23.91a41.79,41.79,0,0,1,24.07-7.38h0a33.93,33.93,0,0,1,9.63,1.2h0l-3.61,43.33a58.7,58.7,0,0,0-12.44-1.61h0a41.43,41.43,0,0,0-21.26,5.86,64.5,64.5,0,0,0-17.65,15h0v138Zm117.14,0V424.51h40.92V612.27l55-85h47.34l-62.58,92.27L1617,725.4h-47.34l-56.17-96.28V725.4Z"/><path class="cls-2" d="M1242.61-.5c344.63,0,624,279.37,624,624s-279.38,624-624,624c-257.29,0-478.2-155.71-573.66-378h19.59c94.33,212.16,306.92,360.1,554.07,360.1,334.72,0,606.07-271.34,606.06-606.06S1577.33,17.44,1242.61,17.44c-247.15,0-459.74,147.94-554.07,360.1H669C764.41,155.21,985.32-.5,1242.61-.5Z"/></g></svg>